<svg id="svg6" clip-rule="evenodd" fill-rule="evenodd" stroke-linejoin="round" stroke-miterlimit="2" viewBox="0 0 64 64" xmlns="http://www.w3.org/2000/svg" xmlns:dc="http://purl.org/dc/elements/1.1/" xmlns:cc="http://creativecommons.org/ns#" xmlns:rdf="http://www.w3.org/1999/02/22-rdf-syntax-ns#" xmlns:svg="http://www.w3.org/2000/svg"><path id="path3311" d="m11.996 11.993c-2.122 0-4.157.845-5.656 2.344-1.498 1.499-2.343 3.534-2.343 5.656v24.008c0 2.122.845 4.157 2.343 5.656 1.499 1.499 3.534 2.344 5.656 2.344h40.008c2.122 0 4.157-.845 5.656-2.344s2.344-3.534 2.344-5.656v-24.008c0-2.122-.845-4.157-2.344-5.656s-3.534-2.344-5.656-2.344zm0 4.004h40.008c1.061 0 2.073.421 2.824 1.172.751.752 1.172 1.763 1.172 2.824v24.008c0 1.061-.421 2.073-1.172 2.824s-1.763 1.172-2.824 1.172h-40.008c-1.061 0-2.072-.421-2.824-1.172-.751-.751-1.171-1.763-1.171-2.824v-24.008c0-1.061.42-2.072 1.171-2.824.752-.751 1.763-1.172 2.824-1.172z"/><path id="path3307" d="m32 17.999c-3.29 0-5.998 2.708-5.998 5.998s2.708 5.998 5.998 5.998 5.998-2.708 5.998-5.998-2.708-5.998-5.998-5.998zm0 3.996c1.129 0 2.002.874 2.002 2.002s-.873 2.002-2.002 2.002c-1.128 0-2.002-.874-2.002-2.002s.874-2.002 2.002-2.002z"/><path id="path3303" d="m32 30.996c-6.603 0-12.004 5.401-12.004 12.004.004 1.096.907 1.995 2.002 1.994 1.096.001 1.999-.898 2.002-1.994 0-4.439 3.561-8 8-8s8 3.561 8 8c.004 1.096.907 1.995 2.002 1.994 1.096.001 1.999-.898 2.002-1.994 0-6.603-5.401-12.004-12.004-12.004z"/></svg>